<svg xmlns="http://www.w3.org/2000/svg" viewBox="0 0 240 360" fill="none" aria-hidden="true">
  
  <line x1="120" y1="180" x2="150" y2="340" stroke="#2B2E94" stroke-width="2.5" stroke-linecap="round"></line>
  
  <circle cx="120" cy="180" r="22" fill="#FFEC5D" opacity="0.85"></circle>
  <circle cx="120" cy="180" r="11" fill="#A49CFF"></circle>
  
  <g stroke-width="6" stroke-linecap="round">
    <line x1="120" y1="180" x2="120" y2="110" stroke="#5A4DEB"></line>
    <line x1="120" y1="180" x2="180" y2="160" stroke="#DE5FCA"></line>
    <line x1="120" y1="180" x2="170" y2="220" stroke="#FEB545"></line>
    <line x1="120" y1="180" x2="75" y2="225" stroke="#48C0F7"></line>
    <line x1="120" y1="180" x2="60" y2="165" stroke="#5A4DEB"></line>
    <line x1="120" y1="180" x2="95" y2="115" stroke="#FEB545"></line>
    <line x1="120" y1="180" x2="148" y2="118" stroke="#48CFC3"></line>
    <line x1="120" y1="180" x2="190" y2="190" stroke="#5A4DEB"></line>
  </g>
  
  <g stroke-width="4" stroke-linecap="round" stroke-dasharray="4 8">
    <line x1="120" y1="180" x2="120" y2="80" stroke="#A49CFF"></line>
    <line x1="120" y1="180" x2="205" y2="140" stroke="#A49CFF"></line>
    <line x1="120" y1="180" x2="195" y2="235" stroke="#5A4DEB"></line>
    <line x1="120" y1="180" x2="130" y2="250" stroke="#DE5FCA"></line>
    <line x1="120" y1="180" x2="55" y2="250" stroke="#5A4DEB"></line>
    <line x1="120" y1="180" x2="35" y2="195" stroke="#48C0F7"></line>
    <line x1="120" y1="180" x2="45" y2="120" stroke="#5A4DEB"></line>
    <line x1="120" y1="180" x2="85" y2="70" stroke="#DE5FCA"></line>
    <line x1="120" y1="180" x2="170" y2="80" stroke="#FEB545"></line>
  </g>
</svg>